<?xml version="1.0" encoding="UTF-8" ?>
<!DOCTYPE svg PUBLIC "-//W3C//DTD SVG 1.1//EN" "http://www.w3.org/Graphics/SVG/1.1/DTD/svg11.dtd">
<svg width="512pt" height="512pt" viewBox="0 0 512 512" version="1.1" xmlns="http://www.w3.org/2000/svg">
<g id="#000000ff">
<path fill="#000000" opacity="1.00" d=" M 72.01 143.93 C 71.72 131.15 83.17 119.72 95.95 120.01 C 191.96 119.98 287.97 119.99 383.98 120.01 C 393.24 119.86 402.02 125.71 405.81 134.08 C 408.57 139.62 407.94 145.95 408.01 151.93 C 402.67 151.94 397.33 151.93 391.99 151.93 C 391.65 147.42 393.27 141.92 389.65 138.35 C 386.92 135.34 382.55 136.09 378.93 135.99 C 284.60 136.04 190.26 135.96 95.93 136.03 C 91.69 135.88 87.86 139.72 88.03 143.97 C 87.96 203.98 88.03 263.99 88.00 324.00 C 82.67 323.98 77.34 324.03 72.01 324.00 C 72.00 263.98 71.98 203.96 72.01 143.93 Z" />
<path fill="#000000" opacity="1.00" d=" M 288.00 177.01 C 287.45 172.42 291.27 167.84 295.98 168.04 C 343.66 167.94 391.34 168.02 439.02 168.00 C 443.58 167.48 448.16 171.28 447.96 175.98 C 448.08 186.65 447.97 197.32 448.00 208.00 C 442.66 208.00 437.32 207.99 431.99 208.01 C 432.03 200.01 431.97 192.00 432.00 184.00 C 389.33 184.01 346.67 184.00 304.00 184.00 C 304.01 245.34 304.00 306.67 304.00 368.00 C 328.00 367.98 352.00 368.00 376.00 367.99 C 376.00 373.33 375.99 378.68 376.02 384.02 C 349.33 383.96 322.64 384.07 295.96 383.97 C 291.24 384.12 287.47 379.55 287.99 374.97 C 288.01 308.98 287.99 243.00 288.00 177.01 Z" />
<path fill="#000000" opacity="1.00" d=" M 392.00 224.00 C 421.37 224.02 450.74 223.94 480.10 224.04 C 484.77 223.92 488.51 228.44 488.01 232.99 C 488.00 280.34 488.00 327.70 488.01 375.06 C 488.50 379.63 484.68 384.14 480.00 383.96 C 453.32 384.03 426.63 384.04 399.95 383.96 C 395.26 384.14 391.49 379.57 392.00 375.02 C 391.99 324.68 391.99 274.34 392.00 224.00 M 408.00 240.00 C 408.01 282.67 408.01 325.33 408.00 368.00 C 429.33 367.99 450.65 368.00 471.98 367.99 C 472.02 325.33 471.98 282.67 472.00 240.00 C 450.67 240.01 429.33 240.01 408.00 240.00 Z" />
<path fill="#000000" opacity="1.00" d=" M 24.11 342.91 C 24.54 338.63 28.81 335.56 32.99 336.00 C 112.66 336.00 192.33 335.98 272.00 336.01 C 271.98 341.34 272.03 346.67 272.00 352.00 C 195.10 352.02 118.21 351.98 41.31 352.02 C 44.67 361.35 54.03 368.14 64.02 367.99 C 133.35 368.00 202.68 368.00 272.01 367.99 C 271.99 373.32 272.00 378.66 272.00 384.00 C 203.02 384.01 134.03 384.01 65.05 384.00 C 54.46 384.23 43.83 380.15 36.24 372.74 C 28.26 365.10 23.59 353.97 24.11 342.91 Z" />
<path fill="#000000" opacity="1.00" d=" M 365.37 336.44 C 371.11 334.15 377.58 340.19 375.71 346.07 C 374.47 351.53 367.03 353.90 362.88 350.12 C 358.15 346.51 359.64 338.13 365.37 336.44 Z" />
<path fill="#000000" opacity="1.00" d=" M 437.37 336.46 C 441.37 334.94 446.20 337.29 447.52 341.34 C 449.14 345.52 446.45 350.61 442.12 351.69 C 437.68 353.07 432.58 349.72 432.10 345.11 C 431.50 341.44 433.85 337.61 437.37 336.46 Z" />
</g>
</svg>
