<?xml version="1.0" encoding="utf-8"?>
<!-- Generator: Adobe Illustrator 25.2.0, SVG Export Plug-In . SVG Version: 6.00 Build 0)  -->
<svg version="1.1" id="Layer_1" xmlns="http://www.w3.org/2000/svg" xmlns:xlink="http://www.w3.org/1999/xlink" x="0px" y="0px"
	 viewBox="0 0 17 15.4" style="enable-background:new 0 0 17 15.4;" xml:space="preserve">
<style type="text/css">
	.st0{fill:#FFFFFF;}
</style>
<g id="_x23_000000ff">
	<path class="st0" d="M1.2,0.3c0.1-0.1,0.2-0.1,0.4-0.1c4.6,0,9.1,0,13.7,0c0.1,0,0.2,0,0.4,0C15.8,0.2,16,0.5,16,0.7
		c0,0.7,0,1.3,0,2C16,3,16,3.3,16,3.6c-0.2,0.8-0.6,1.5-1.3,1.9c-0.5,0.3-1.1,0.5-1.7,0.4c-0.8-0.1-1.6-0.5-2.1-1.1
		c-0.4,0.5-0.8,0.8-1.4,1c-1.1,0.4-2.5-0.1-3.2-1c-0.3,0.3-0.6,0.6-1,0.9C4.6,5.9,3.9,6,3.3,5.9c0,2.5,0,4.9,0,7.4
		c0,0.1,0,0.3,0,0.4c0.1,0.2,0.3,0.4,0.5,0.4c0.6,0,1.2,0,1.7,0c0-2.1,0-4.3,0-6.4c0-0.3,0.3-0.6,0.6-0.6c1.6,0,3.1,0,4.7,0
		c0.3,0,0.6,0.3,0.6,0.6c0,1.6,0,3.1,0,4.7c0,0.4-0.4,0.6-0.7,0.5c-0.2,0-0.3-0.2-0.4-0.4c-0.1-0.1,0-0.3,0-0.4c0-1.3,0-2.6,0-3.9
		c-1.2,0-2.3,0-3.5,0c0,1.9,0,3.9,0,5.8c2.1,0,4.3,0,6.4,0c0.3,0,0.6-0.3,0.6-0.6c0-1.9,0-3.7,0-5.6c0-0.2,0-0.3,0.1-0.5
		C14,7.1,14.4,7,14.7,7.3c0.1,0.1,0.2,0.3,0.2,0.5c0,1.9,0,3.9,0,5.8c0,0.8-0.6,1.5-1.4,1.7c-0.2,0.1-0.5,0-0.7,0
		c-2.9,0-5.8,0-8.8,0c-0.3,0-0.5,0-0.8-0.1c-0.7-0.2-1.2-0.9-1.2-1.7c0-2.7,0-5.4,0-8.1C1.4,4.8,0.9,4,0.9,3.1c0-0.8,0-1.5,0-2.3
		C0.9,0.6,1,0.4,1.2,0.3 M2.1,1.3c0,0.6,0,1.2,0,1.7c0,0.8,0.6,1.5,1.4,1.7C4,4.9,4.6,4.7,5,4.3C5.3,4,5.6,3.5,5.6,3.1
		c0-0.6,0-1.2,0-1.7C4.4,1.3,3.3,1.3,2.1,1.3 M6.7,1.3c0,0.6,0,1.1,0,1.7c0,0.7,0.5,1.5,1.2,1.7c0.3,0.1,0.7,0.1,1.1,0
		c0.7-0.2,1.2-0.9,1.2-1.6c0-0.6,0-1.2,0-1.8C9.1,1.3,7.9,1.3,6.7,1.3 M11.4,1.3c0,0.6,0,1.1,0,1.7c0,0.7,0.5,1.4,1.1,1.7
		c0.3,0.1,0.6,0.1,1,0.1c0.6-0.1,1.1-0.6,1.3-1.3c0.1-0.2,0.1-0.4,0.1-0.5c0-0.5,0-1.1,0-1.6C13.7,1.3,12.6,1.3,11.4,1.3z"/>
</g>
</svg>
