<?xml version="1.0" encoding="utf-8"?>
<!-- Generator: Adobe Illustrator 25.2.0, SVG Export Plug-In . SVG Version: 6.00 Build 0)  -->
<svg version="1.1" id="Layer_1" xmlns="http://www.w3.org/2000/svg" xmlns:xlink="http://www.w3.org/1999/xlink" x="0px" y="0px"
	 viewBox="0 0 17 17" style="enable-background:new 0 0 17 17;" xml:space="preserve">
<style type="text/css">
	.st0{fill:#FFFFFF;}
</style>
<g id="_x23_474747ff">
	<path class="st0" d="M1.4,1.4c0.1,0,0.2,0,0.2,0c4.6,0,9.2,0,13.7,0c0.3,0,0.6,0.1,0.8,0.3c0.3,0.2,0.5,0.6,0.5,1
		c0,3.8,0,7.7,0,11.5c0,0.3-0.1,0.7-0.3,0.9c-0.3,0.3-0.6,0.4-1,0.4c-4.5,0-8.9,0-13.4,0c-0.3,0-0.5,0-0.8-0.1
		c-0.5-0.2-0.8-0.7-0.8-1.2c0-3.8,0-7.6,0-11.4c0-0.2,0-0.4,0.1-0.6C0.5,1.9,0.9,1.5,1.4,1.4 M2,2.4c-0.1,0-0.2,0.1-0.3,0.2
		C1.7,2.8,1.8,3.1,2,3.1C2.2,3.2,2.5,3,2.5,2.8C2.5,2.6,2.3,2.4,2,2.4 M3.4,2.4C3.3,2.5,3.2,2.7,3.2,2.9c0,0.2,0.2,0.3,0.4,0.3
		C3.9,3.1,4,2.9,4,2.7C3.9,2.5,3.6,2.3,3.4,2.4 M4.9,2.4C4.7,2.5,4.6,2.7,4.7,2.9C4.8,3.1,5,3.2,5.2,3.1c0.2-0.1,0.3-0.3,0.3-0.5
		C5.4,2.5,5.1,2.3,4.9,2.4 M0.8,3.9c0,3.4,0,6.8,0,10.1c0,0.2,0,0.4,0.1,0.5c0.1,0.3,0.4,0.5,0.7,0.5c4.5,0,9,0,13.4,0
		c0.1,0,0.2,0,0.4,0c0.3,0,0.6-0.2,0.7-0.5c0.1-0.2,0.1-0.3,0.1-0.5c0-3.4,0-6.8,0-10.1C11.1,3.9,5.9,3.9,0.8,3.9z"/>
	<path class="st0" d="M2.3,6.1c1.9,0,3.7,0,5.6,0c0.1,0,0.3,0.1,0.3,0.2c0,0.2-0.1,0.3-0.3,0.3c-1.9,0-3.7,0-5.6,0
		c-0.1,0-0.2-0.1-0.3-0.2C2.1,6.3,2.2,6.1,2.3,6.1z"/>
	<path class="st0" d="M10.8,6.5c0.3-0.1,0.5,0,0.8,0.1c0.3,0.1,0.6,0.5,0.7,0.8c0.1,0.4,0,0.8-0.2,1.1C11.8,9,11.2,9.2,10.7,9
		c-0.3-0.1-0.6-0.4-0.7-0.7C9.8,8,9.8,7.6,10,7.2C10.1,6.9,10.5,6.6,10.8,6.5z"/>
	<path class="st0" d="M2.6,7.5C2.7,7.4,2.8,7.4,3,7.5c0.9,0.6,1.7,1.2,2.6,1.7C5.7,9.3,5.8,9.4,6,9.5c0.2-0.1,0.3-0.1,0.5,0
		C7,9.7,7.5,9.9,8.1,10.1c0.1,0,0.2,0,0.3,0C8.9,9.8,9.5,9.6,10,9.4c0.4-0.2,0.8-0.2,1.2-0.2c0.3,0,0.7,0.1,0.9,0.3
		c0.8,0.6,1.6,1.3,2.4,1.9c0.2,0.1,0.3,0.3,0.2,0.5c0,0.1-0.1,0.3-0.1,0.4c-0.4,0.5-0.7,1.1-1.1,1.6c-0.2,0.3-0.6,0.3-0.9,0.1
		c-0.2-0.2-0.3-0.5-0.1-0.8c0.3-0.4,0.5-0.8,0.8-1.2c-0.4-0.3-0.7-0.6-1.1-0.9c0,1.1,0,2.1,0,3.2c-0.9,0-1.8,0-2.8,0
		c0-1.2,0-2.3,0-3.5c-0.4,0.1-0.8,0.2-1.2,0.4c-0.1,0-0.2,0-0.4,0c-0.6-0.2-1.3-0.4-1.9-0.6c-0.3-0.1-0.5-0.5-0.4-0.8
		c-1-0.7-2-1.3-3-2C2.5,7.8,2.5,7.7,2.6,7.5z"/>
	<path class="st0" d="M4.9,7.4c0.6,0,1.2,0,1.8,0C6.9,7.4,7,7.5,7,7.7C7,7.8,6.9,8,6.7,7.9c-0.6,0-1.2,0-1.8,0
		C4.8,8,4.7,7.8,4.7,7.7C4.7,7.6,4.8,7.5,4.9,7.4z"/>
	<path class="st0" d="M2.3,9c0.3,0,0.7,0,1,0c0.1,0,0.3,0.1,0.3,0.3c0,0.1-0.1,0.3-0.3,0.2c-0.3,0-0.7,0-1,0c-0.1,0-0.3-0.1-0.3-0.3
		C2.1,9.2,2.2,9,2.3,9z"/>
	<path class="st0" d="M2.3,10.4c0.7,0,1.5,0,2.2,0c0.1,0,0.2,0,0.3,0.1c0.1,0.1,0.1,0.3,0,0.4c-0.1,0.1-0.2,0.1-0.2,0.1
		c-0.7,0-1.5,0-2.2,0c-0.1,0-0.2-0.1-0.3-0.2C2.1,10.6,2.2,10.5,2.3,10.4z"/>
	<path class="st0" d="M2.3,12c1.2,0,2.3,0,3.5,0c0.1,0,0.3,0.1,0.3,0.2c0,0.2-0.1,0.3-0.2,0.3c-1.2,0-2.3,0-3.5,0
		c-0.1,0-0.2-0.1-0.3-0.2C2.1,12.2,2.2,12.1,2.3,12z"/>
</g>
</svg>
